<svg xmlns="http://www.w3.org/2000/svg" width="448" height="422"><path d="M0 0h448v422H0z" fill="#fefefe"/><path d="m314 119 2.91 2.582c21.139 19.8 33.499 49.306 35.313 77.944.115 3.536.157 7.061.152 10.599l-.005 3.806c-.14 10.74-1.537 20.727-4.37 31.069l-.84 3.219C341.177 268.29 329.793 285.516 316 301l-1.8 2.023c-18.495 19.55-44.14 31.154-70.2 35.977l-2.861.533c-15.32 2.28-32.167 1.385-47.139-2.533l-3.402-.773C165.527 329.966 142.104 314.094 126 294l-2.11-2.602c-9.646-12.34-16.557-25.707-21.89-40.398l-.96-2.586c-10.368-29.254-6.693-64.99 6.41-92.719 15.36-31.165 41.326-55.162 74.363-66.632C230.293 74.31 276.847 85.412 314 119" fill="#f2eeed"/><path d="m214.223 37.762 2.347-.03q3.746-.035 7.493-.044l2.58-.008c13.496-.005 26.243.914 39.357 4.32l3.867.945c3.426.908 6.771 1.936 10.133 3.055l3.738 1.234c20.384 7.041 38.6 18.238 54.745 32.433a600 600 0 0 0 4.244 3.685c31.725 27.796 51.446 68.496 54.898 110.398.503 8.09.54 16.15.375 24.25-.017 1.178-.034 2.356-.05 3.57-1.179 30.095-12.005 60.662-28.95 85.43l-2.168 3.258c-5.977 8.804-12.847 16.507-20.263 24.122a244 244 0 0 0-3.901 4.143C317.938 364.72 281.928 379.483 247 385l-3.676.594c-5.755.677-11.56.592-17.348.591-2.01.002-4.02.02-6.029.04-13.687.02-26.686-1.77-39.884-5.413l-3.408-.934c-8.993-2.542-17.315-5.697-25.655-9.878l-2.006-.958C130.408 360.156 114.481 347.555 100 333l-2.434-2.434C95.26 328.123 93.12 325.608 91 323l-1.525-1.874C69.848 296.662 56.222 267.216 52 236l-.515-3.168c-.526-4.158-.665-8.194-.688-12.379l-.017-2.456q-.014-2.573-.02-5.144a890 890 0 0 0-.072-7.662c-.298-46.568 20.323-87.73 52.64-120.546 3.965-3.9 8.218-7.325 12.672-10.645l1.576-1.197C142.05 54.28 168.849 43.903 199 39l3.28-.535c3.992-.499 7.927-.661 11.943-.703M134 119l-2.262 2.07c-22.263 21.059-34.974 52.356-35.984 82.715-.643 35.485 9.844 67.765 34.168 93.926a96 96 0 0 1 4.133 4.879c16.73 20.728 47.666 34.161 73.552 37.207 36.012 3.054 70.12-5.947 98.084-29.204C331.293 288.682 347.94 258.583 352 225c.285-4.712.334-9.405.313-14.125l-.015-3.856c-.398-32.12-12.43-62.463-35.173-85.394-17.538-17.082-36.923-28.72-60.5-35.437l-2.197-.628C211.975 74.068 164.973 89.346 134 119" fill="#fbfafa"/><path d="M223 127c3.765 1.029 6.972 3.092 10.314 5.072 14.214 8.381 28.57 12.76 44.686 15.928l5.54 1.11 4.46.89c.78 39.498-.783 76.666-29 107l-2.621 2.902c-6.475 6.86-13.568 12.097-21.596 17.004q-1.814 1.113-3.582 2.302c-2.825 1.81-4.782 2.79-8.166 2.812-3.897-1.31-7.14-3.128-10.597-5.332l-2.114-1.338c-7.183-4.692-13.332-10.238-19.324-16.35l-2.559-2.598C183.12 250.74 178.852 244.741 175 238l-1.812-3.14c-5.15-9.545-7.913-19.308-10.188-29.86l-.8-3.444c-2.37-11.085-2.554-21.754-2.387-33.056q.022-2.709.04-5.418c.033-4.361.085-8.721.147-13.082l2.225-.456C184.109 145.012 204.203 139.531 223 127" fill="#621e16"/><path d="M147.39 124.164c2.647.848 4.916 1.893 7.36 3.211 4.628 2.397 9.26 4.143 14.25 5.625a605 605 0 0 1-2 5l-1.125 3.688C164 145 164 145 162.067 145.76L156 147l-.043 3.934c-.262 11.712-1.653 22.666-4.148 34.11-1.791 8.358-2.669 16.41-2.809 24.956h-12v3h12l.297 3.375c.884 9.276 2.322 18.074 4.773 27.063.792 3.033 1.343 5.968 1.805 9.062.945 5.162 3.695 8.638 7.125 12.5 0-2.428-.5-4.63-1-7 3.305-1.118 6.632-2.088 10-3l2.574-.773c2.77-.6 4.644-.812 7.426-.227 3.541 2.885 6.163 6.441 9 10 8.54 9.076 19.862 16.431 31 22v14l-6.312-.25c-7.121.021-12.254 1.351-18.688 4.25q-3.11 1.372-6.221 2.736-2.11.932-4.21 1.89c-3.503 1.578-6.757 2.822-10.569 3.374 5.318 2.24 10.316 2.852 16 2 3.669-1.61 6.885-3.746 10.188-6 10.19-6.86 10.19-6.86 16.812-6a1705 1705 0 0 1-7.57 6.035l-2.555 2.027-2.57 2.036c-2.817 2.287-2.817 2.287-5.305 4.902v3c3.29-1.396 4.956-2.937 7.125-5.75 3.837-4.504 8.243-8.247 13.875-10.25 5.745.085 9.035 2.013 13.188 5.75l1.537 1.305c2.436 2.11 4.483 4.215 6.45 6.773L245 320h3c-3.302-7.305-9.642-11.693-16.277-15.836L230 303v-1c8.017-1.266 14.501 4.972 20.75 9.25 3.304 2.242 6.345 3.749 10.25 4.75-.604 4.577-.604 4.577-2 7-2.834 1.654-5.815 2.294-9 3l-2.172.582c-6.202 1.573-12.452 2.085-18.828 2.418l-2.988.164c-21.93.613-43.407-5.737-62.012-17.164l-1.731-1.06C146.027 300.737 132.634 286.508 123 270l-1.087-1.77C111.915 251.93 106.76 232.09 107 213h7v-3h-7c-1.503-25.78 8.95-53.76 26-73l2.324-2.648A435 435 0 0 1 142 127l1.453-1.852C145 124 145 124 147.391 124.164" fill="#621e16"/><path d="M302.96 124.672C321.964 137.048 334.4 163.609 339 185l.672 3.063c1.413 7.332 1.544 14.488 1.328 21.937h-6v3h6c.159 6.355-.294 12.151-1.562 18.375l-.53 2.604C334.758 253.12 326.694 271.003 314 286l-2 1-2-2-7 4-1-2 1.574-1.102c4.523-3.26 8.047-6.463 11.426-10.898l-3.5 1.688c-5.112 2.291-10.37 3.906-15.738 5.473-3.227.96-6.12 2.021-9.125 3.554L284 287l-2-1 1.137-1.258c5.18-6.237 7.442-13.116 9.863-20.742l-1-1c-4.897 5.206-9.503 10.196-12.93 16.504C278 281 278 281 275 282v-3l-6.687 5.25-1.897 1.488-1.865 1.465-1.84 1.444a371 371 0 0 0-4.43 3.572c-2.946 2.3-6.008 3.984-9.281 5.781v3l-3.625-.5c-6.453-.733-12.888-.563-19.375-.5v-14l2.605-1.398c10.265-5.616 19.972-11.782 28.004-20.387l1.842-1.957a126 126 0 0 0 3.442-3.876c3.911-4.263 3.911-4.263 7.335-4.603 2.337.228 4.5.639 6.772 1.221l3.066.754 2.497.809 2.566.816L286 258l-.5 2.375c-.562 2.507-.562 2.507-.5 4.625l2.375-3 2.625-3h2l-.645-1.96c-.498-4.263.706-7.61 1.957-11.665q.711-2.428 1.41-4.86c.225-.779.45-1.558.68-2.36 2.292-8.267 2.996-16.625 3.598-25.155h12v-3h-12l-.297-3.926c-.736-8.976-1.671-17.68-3.765-26.449-2.407-10.156-2.657-20.299-2.796-30.702.068-1.93.068-1.93-1.142-2.923h-3.312c-3.688-1-3.688-1-5.04-2.96-1.566-3.484-2.648-6.192-2.648-10.04.846-.315 1.691-.63 2.563-.953 7.666-2.875 7.666-2.875 15-6.484C301 124 301 124 302.96 124.672" fill="#621e16"/><path d="m214.223 37.762 2.347-.03q3.746-.035 7.493-.044l2.58-.008c13.496-.005 26.243.914 39.357 4.32l3.867.945c3.426.908 6.771 1.936 10.133 3.055l3.738 1.234c20.384 7.041 38.6 18.238 54.745 32.433a600 600 0 0 0 4.244 3.685c31.725 27.796 51.446 68.496 54.898 110.398.503 8.09.54 16.15.375 24.25-.017 1.178-.034 2.356-.05 3.57-1.179 30.095-12.005 60.662-28.95 85.43l-2.168 3.258c-5.977 8.804-12.847 16.507-20.263 24.122a244 244 0 0 0-3.901 4.143C317.938 364.72 281.928 379.483 247 385l-3.676.594c-5.755.677-11.56.592-17.348.591-2.01.002-4.02.02-6.029.04-13.687.02-26.686-1.77-39.884-5.413l-3.408-.934c-8.993-2.542-17.315-5.697-25.655-9.878l-2.006-.958C130.408 360.156 114.481 347.555 100 333l-2.434-2.434C95.26 328.123 93.12 325.608 91 323l-1.525-1.874C69.848 296.662 56.222 267.216 52 236l-.515-3.168c-.526-4.158-.665-8.194-.688-12.379l-.017-2.456q-.014-2.573-.02-5.144a890 890 0 0 0-.072-7.662c-.298-46.568 20.323-87.73 52.64-120.546 3.965-3.9 8.218-7.325 12.672-10.645l1.576-1.197C142.05 54.28 168.849 43.903 199 39l3.28-.535c3.992-.499 7.927-.661 11.943-.703M106 91l-2.621 2.46C91.604 104.814 83.216 117.99 75 132l-1.105 1.838c-2.374 4.012-4.229 8.108-5.832 12.475l-.765 2.06C64.378 156.438 62.093 164.687 60 173l-.549 2.043c-2.957 11.826-2.632 24.285-2.639 36.394l-.037 3.909C56.712 257.637 74.936 297.727 104 328l1.458 1.568C114.694 339.485 124.71 347.522 136 355l2.073 1.39C150.2 364.408 163.31 369.278 177 374l3.09 1.117c24.448 7.417 53.061 7.285 77.91 1.883l2.285-.472C286.49 370.966 310.91 358.742 331 341c.485-.42.97-.84 1.468-1.274 19.693-17.165 34.476-38.1 45.532-61.726l1.203-2.437c4.891-10.649 7.237-22.181 9.797-33.563l.557-2.4c6.7-29.673 2.527-62.46-8.557-90.6l-1.367-3.543C368.082 117.537 348.363 92.893 324 75l-1.58-1.172C306.639 62.271 288.733 54.41 270 49l-2.04-.6C209.927 31.616 148.86 50.084 106 91" fill="#621e16"/><path d="m314 119 2.91 2.582c21.139 19.8 33.499 49.306 35.313 77.944.115 3.536.157 7.061.152 10.599l-.005 3.806c-.14 10.74-1.537 20.727-4.37 31.069l-.84 3.219C341.177 268.29 329.793 285.516 316 301l-1.8 2.023c-18.495 19.55-44.14 31.154-70.2 35.977l-2.861.533c-15.32 2.28-32.167 1.385-47.139-2.533l-3.402-.773C165.527 329.966 142.104 314.094 126 294l-2.11-2.602c-9.646-12.34-16.557-25.707-21.89-40.398l-.96-2.586c-10.368-29.254-6.693-64.99 6.41-92.719 15.36-31.165 41.326-55.162 74.363-66.632C230.293 74.31 276.847 85.412 314 119m-174 5-2.273 2.078c-6.61 6.262-11.72 13.365-16.727 20.922l-1.977 2.969c-14.176 22.733-19.835 53.758-14.835 79.969q.856 3.544 1.812 7.062l.996 4.02c4.065 15.645 10.775 30.403 21.004 42.98l1.926 2.531c17.18 22.31 40.94 36.54 68.074 43.469l2.142.558c7.727 1.798 15.457 1.844 23.358 1.817l2.156-.006c24.458-.14 48.791-7.064 68.344-22.369l2.508-1.852c27.495-20.944 42.62-50.278 48.069-84.009 4.011-29.748-4.572-60.711-22.48-84.686A315 315 0 0 0 316 132l-1.68-2.09C296.654 108.567 268.162 94.87 241 91c-38.86-1.932-71.927 5.537-101 33" fill="#621e16"/><path d="M232.875 160.25c5.755 3.223 9.562 6.56 12.125 12.75.579 3.148.693 6.242.75 9.438l.09 2.505c.07 2.019.117 4.038.16 6.057l7 3q.147 9.075.22 18.152.03 3.087.082 6.175c.048 2.959.071 5.917.089 8.876l.062 2.788c.001 3.685-.08 6.283-1.778 9.588-4.43 2.353-8.927 1.99-13.863 1.952l-3.317.012q-3.47.004-6.94-.022c-3.542-.02-7.083 0-10.625.026a2906 2906 0 0 1-6.743-.016l-3.213.025c-7.113-.091-7.113-.091-10.642-1.997-2.057-3.952-1.884-7.639-1.828-12.032l-.005-2.786q.004-2.911.034-5.822c.03-2.974.021-5.947.008-8.921q.01-2.829.025-5.658l-.008-2.7.038-2.507.016-2.205c.502-2.494 1.385-3.4 3.388-4.928 2.688-.187 2.688-.187 5 0l-.14-3.91q-.057-2.577-.11-5.153l-.102-2.568c-.093-6.037.79-9.452 4.352-14.369 2.035-1.96 2.035-1.96 4.063-3.375l2.035-1.46c5.586-3.42 13.773-3.348 19.777-.915" fill="#fcfbfb"/><path d="M147.578 123.977c2.461 1.04 4.82 2.13 7.172 3.398 4.628 2.397 9.26 4.143 14.25 5.625a605 605 0 0 1-2 5l-1.125 3.688C164 145 164 145 162.067 145.76L156 147l-.043 3.934c-.262 11.712-1.653 22.666-4.148 34.11-1.791 8.358-2.669 16.41-2.809 24.956h-12v3h12l.297 3.375c.883 9.263 2.33 18.049 4.75 27.031 1.192 4.496 2.117 9.02 2.953 13.594h-2l-1 2-2-1-1 3q-1.517-3.995-3-8l-1.312-3.508-1.375-3.742-1.325-3.578C143 239 143 239 143 235l-4-1-.621-3.684-.816-4.754-.409-2.431c-.357-3.886-.357-3.886-2.154-7.131-3.272 8.56-3.674 16.951-4 26-3.195-3.135-5.857-6.03-8-10 .25-3.375.25-3.375 1-6l2 3 .563-3.437c1.862-8.49 5.746-16.587 9.304-24.488 1.422-3.186 2.515-6.028 2.82-9.512L139 188l-3-1 2-3c.543-1.4 1.04-2.82 1.5-4.25l.719-2.203c.972-3.17 1.878-6.357 2.781-9.547-7.29 6-12.538 11.01-16 20h-1l-.184-3.473-.254-4.59-.119-2.279A136 136 0 0 0 124 164h-2c-1.5-6.003-1.298-9.306 1.75-14.75 4.431-6.944 9.701-13.182 15.25-19.25l1.5-1.751c3.825-4.243 3.825-4.243 7.078-4.272M311 210l.313 1.938L312 214l3 1-1 3-1-2c-1.197 3.592-1.087 6.822-1.027 10.555l.037 4.55q.037 3.579.086 7.156c.03 2.306.048 4.612.064 6.919l.04 2.147c.021 4.015-.421 7.059-2.2 10.673l-2-1c-.41-1.95-.41-1.95-.633-4.473l-.254-2.724-.238-2.865-.262-2.877q-.32-3.53-.613-7.061c-3.062 8.423-5.473 16.63-6.97 25.473-.834 4.822-2.073 9.053-4.03 13.527l-3-1c-.09-4.474.143-8.606 1-13-5.493 4.875-9.338 10.294-13.203 16.523C278 281 278 281 275 282v-3l-6.687 5.25-1.897 1.488-1.865 1.465-1.84 1.444a371 371 0 0 0-4.43 3.572c-2.946 2.3-6.008 3.984-9.281 5.781v3l-3.625-.5c-6.453-.733-12.888-.563-19.375-.5v-14l2.605-1.398c10.265-5.616 19.972-11.782 28.004-20.387l1.842-1.957a126 126 0 0 0 3.442-3.876c3.911-4.263 3.911-4.263 7.335-4.603 2.337.228 4.5.639 6.772 1.221l3.066.754 2.497.809 2.566.816L286 258l-.5 2.375c-.562 2.507-.562 2.507-.5 4.625l2.375-3 2.625-3h2l-.645-1.96c-.498-4.263.706-7.61 1.957-11.665q.711-2.428 1.41-4.86c.225-.779.45-1.558.68-2.36 2.292-8.267 2.996-16.625 3.598-25.155h12z" fill="#621e16"/><path d="m160 108 2 1c-2.524 5.552-7.208 8.514-12 12l5 4c-2.822.726-4.576 1.124-7.41.297-2.658-.59-2.658-.59-4.73 1.152-19.365 20.548-31.396 44.115-34.548 72.239l-.392 3.318Q107.45 206 107 210h7v3h-7c5.174 36.4 16.31 67.33 46.271 90.777 8.95 6.573 18.355 12.2 28.729 16.223l3.465 1.36c28.473 10.331 59.997 8.566 87.41-4.173 7.135-3.45 13.736-7.485 20.125-12.187l2.535-1.824C321.878 283.262 334.521 253.796 340 222c.414-3.003.735-5.98 1-9h-6v-3h6l-.07-3.867q-.029-2.505-.055-5.008l-.05-2.55-.02-2.442-.032-2.254C341 192 341 192 343 190c6.701 29.39-1.224 60.491-16.635 85.853-15.197 23.908-37.362 40.77-63.865 50.397l-1.937.71c-11.966 4.135-23.757 5.594-36.375 5.478l-2.124-.01c-10.845-.07-20.734-.882-31.064-4.428l-1.993-.65c-32-10.493-57.513-32.154-73.004-62.08-13.384-26.844-17.15-57.326-9.003-86.27l.567-2.041c5.844-20.408 16.89-36.873 31.433-51.959.666-.73 1.333-1.46 2.02-2.21 5.595-5.962 12.188-10.317 18.98-14.79" fill="#f1edec"/><path d="M293 261c1.382 4.147-.132 6.909-1.625 10.813l-.754 2.119c-1.828 4.86-4.105 8.246-7.621 12.068l2.027-.918c7.652-3.338 15.36-5.798 23.383-8.066 2.21-.626 4.41-1.29 6.59-2.016-1.55 3.884-4.005 6.03-7.125 8.75l-2.758 2.422L303 288l3.375-2c3.375-2 3.375-2 5.625-2-.813 5.948-3.915 8.835-8 13l-1.645 1.684C291.36 309.034 274.133 320.667 259 323l2-7-2-1 13-3-4.062-.5c-7.683-1.481-14.227-5.652-20.938-9.5l2-1-1-4 2.09-1.031c6.897-3.557 12.292-7.657 17.91-12.969 4.7-4 4.7-4 7-4l1 2c2.823-2.497 4.805-5.159 6.813-8.312 2.9-4.481 6.27-8.084 10.187-11.688m-111-7c2.203 1.871 2.203 1.871 4.25 4.438C196.149 270.084 208.3 279.15 222 286v14l-6.312-.25c-6.127-.019-10.716.945-16.333 3.293-2.749 1.117-5.41 1.639-8.355 1.957l-1-2h2l1-3c2.563-1.687 2.563-1.687 5-3l-1.906-1.066c-5.988-3.454-11.017-7.27-16.094-11.934a521 521 0 0 0-6-5l1 8c-4.262-1.42-5.264-4.484-7.25-8.25l-1.14-2.027c-2.167-4.054-2.939-6.158-1.61-10.723-1.375-3.167-1.375-3.167-3-6v-2q2.374-.72 4.75-1.437l2.672-.81L172 255l1.953-.598c2.842-.558 5.154-.728 8.047-.402" fill="#621e16"/><path d="M337 214h3c.608 10.806-.959 19.715-4 30l-.875 3.117C330.792 261.391 323.356 274.435 314 286l-2 1-2-2-7 4-1-2 1.574-1.102c4.523-3.26 8.047-6.463 11.426-10.898l-3.5 1.688c-5.112 2.291-10.37 3.906-15.738 5.473-3.227.96-6.12 2.021-9.125 3.554L284 287l-2-1 1.207-1.469c3.702-4.683 5.966-8.849 7.793-14.531l1.438 1.938c1.4 1.945 1.4 1.945 2.562 3.062 2.962-10.484 2.962-10.484 4.938-21.187.948-6.396 3.351-11.978 6.062-17.813h1l2 21 6.688-5.687 2.076-1.761c5.65-4.825 10.318-9.028 13.548-15.864l1.551-3.239L334 228h2l1-11-2-1zm-217-58c2.152 3.228 2.2 4.284 2 8h2c1.616 5.052 2.342 9.601 2.625 14.938l.117 2.072q.138 2.494.258 4.99l.848-1.723C131.722 176.814 136.4 170.915 144 167c-4.107 14.214-4.107 14.214-7 20l2 1c.477 6.807-1.007 11.405-3.812 17.563l-1.08 2.458a763 763 0 0 1-4.015 8.97c-1.41 3.161-2.477 5.99-2.78 9.446L127 230c-3.425-1.712-4.407-5.658-6-9q-1.048-2.108-2.105-4.21c-7.02-14.04-7.02-14.04-7.457-18.915l-.254-2.758L111 193c-1.466 2.931-1.62 5.886-2.062 9.125l-.536 3.883L108 209h5v1h-6c-1.088-18.65 4.444-37.571 13-54m106-61q2.35.45 4.7.906l2.643.51c16.232 3.567 29.944 16.494 38.782 30.147C274 130 274 130 274 132c-18.732 3.994-29.348 3.8-45.679-6.727C226 123 226 123 225.432 119.976l.08-3.492.049-3.789.126-3.945.069-3.992q.089-4.88.244-9.758m-4 0c2.219 24.246 2.219 24.246-1.277 30.161-3.64 3.567-7.98 5.178-12.723 6.839l-3.02 1.66c-9.359 4.207-21.553 1.01-30.98-1.66 1.887-5.113 4.606-8.787 8-13l1.715-2.2C192.382 106.303 207.747 95 222 95m8 207c8.017-1.266 14.501 4.972 20.75 9.25 3.304 2.242 6.345 3.749 10.25 4.75-.604 4.577-.604 4.577-2 7-2.834 1.654-5.815 2.294-9 3l-2.172.582c-14.255 3.616-31.59 4.132-45.828.418l-2-3h2v-2h2l.316-1.758c2.147-7.04 9.149-11.566 15.059-15.308 3.661-1.302 5.882-.928 9.625.066 2.295 1.528 4.167 2.932 6.188 4.75l1.537 1.305c2.436 2.11 4.483 4.215 6.45 6.773L245 320h3c-3.302-7.305-9.642-11.693-16.277-15.836L230 303z" fill="#621e16"/><path d="m311 210 .313 1.938L312 214l3 1-1 3-1-2c-1.197 3.592-1.087 6.822-1.027 10.555l.037 4.55q.037 3.579.086 7.156c.03 2.306.048 4.612.064 6.919l.04 2.147c.021 4.015-.421 7.059-2.2 10.673l-2-1c-.41-1.95-.41-1.95-.633-4.473l-.254-2.724-.238-2.865-.262-2.877q-.32-3.53-.613-7.061c-3.062 8.423-5.473 16.63-6.97 25.473-.834 4.822-2.073 9.053-4.03 13.527l-3-1c-.09-4.474.143-8.606 1-13l-1.46 1.46L284 271v-2l-3 1 1-3h3l.813-1.75c1.216-2.306 2.49-4.27 4.187-6.25h2l-.645-1.96c-.498-4.263.706-7.61 1.957-11.665q.711-2.428 1.41-4.86c.225-.779.45-1.558.68-2.36 2.292-8.267 2.996-16.625 3.598-25.155h12zM214 95c-2.854 1.903-5.308 2.924-8.5 4.125-15.04 6.205-25.467 17.707-34.5 30.875-5.626-.52-9.897-2.065-14.937-4.562l-2.073-.999A661 661 0 0 1 149 122c16.504-16.758 41.322-27.58 65-27m21 0c5.532-.205 10.429.508 15.813 1.75l2.423.556c5.868 1.391 11.312 3.086 16.764 5.694l1.788.828C293.67 114.008 293.67 114.008 299 122c-17.264 8.788-17.264 8.788-22 8-2.281-2.45-2.281-2.45-4.5-5.687-2.903-4.187-5.812-7.795-9.5-11.313l-1.895-1.957c-5.856-5.666-12.337-8.95-19.628-12.379C238 97 238 97 235 95" fill="#621e16"/><path d="M289.848 211.902 296 212c.644 13.52-1.876 30.752-8 43-6.111-1.039-12.077-2.157-18-4 1.19-2.519 2.518-4.864 3.953-7.258 5.269-8.807 8.966-17.453 11.953-27.27 1.397-4.435 1.397-4.435 3.942-4.57M153 213h8l1.215 3.594c3.487 10.026 7.522 19.165 12.965 28.281C177 248 177 248 178 251l-18 4c-5.03-14.427-7.345-26.727-7-42m75-44c3.742 1.627 5.976 3.468 8 7 .215 2.852.284 5.415.188 8.25L236 192h-24l-.25-7.125-.11-2.208c-.086-5.067 1.172-7.802 4.36-11.667 4.044-2.696 7.253-2.543 12-2" fill="#621e16"/><path d="M306 236h1c.059 3.687.094 7.375.125 11.063l.05 3.146c.037 5.678-.245 10.435-2.175 15.791l2.563-2.812c3.742-3.759 7.856-6.874 12.125-10l1.98-1.455c3.032-2.191 5.947-4.117 9.332-5.733-6.253 14.967-15.26 22.692-29.437 29.938l-1.865.966c-1.536.763-3.115 1.438-4.698 2.096l-2-1 1.313-2.25c3.344-6.72 4.528-14.383 5.562-21.75.991-6.46 3.385-12.1 6.125-18" fill="#f6f4f3"/><path d="M142 236c5.578 8.367 6.9 18.863 8.43 28.613.927 5.473 2.156 8.996 5.57 13.387l1 2-1.751-.898c-2.052-1.006-4.105-1.884-6.226-2.73-13.54-5.57-23.37-11.797-30.023-25.372a205 205 0 0 1-2-5c4.347 2.058 7.98 4.81 11.813 7.688l2.08 1.529c4.774 3.573 9.002 7.46 13.107 11.783l-.698-1.83c-3.338-9.035-3.546-19.815-1.302-29.17" fill="#f6f3f2"/><path d="m136 210 1 3h12l.297 3.375c.883 9.263 2.33 18.049 4.75 27.031 1.192 4.496 2.117 9.02 2.953 13.594h-2l-1 2-2-1-1 3q-1.517-3.995-3-8l-1.312-3.508-1.375-3.742-1.325-3.578C143 239 143 239 143 235l-4-1q-.756-4.875-1.5-9.75l-.434-2.79-.41-2.694-.38-2.476C136 214 136 214 136 210" fill="#621e16"/><path d="M155 262c8.56 6.685 13.376 14.318 18.29 23.95 1.663 2.966 3.511 5.462 5.71 8.05-16.804-.966-30.397-1.84-43.172-13.914C134 278 134 278 133 275q7.208 2.394 14.402 4.824l5.536 1.863 2.86.971 2.73.916 2.46.831c1.982.69 1.982.69 4.012.595l-2.75-2.75c-4.829-5.596-7.25-12.91-7.25-20.25" fill="#f5f2f2"/><path d="M293 261c1.382 4.147-.132 6.909-1.625 10.813l-.754 2.119c-1.828 4.86-4.105 8.246-7.621 12.068l2.027-.918c7.652-3.338 15.36-5.798 23.383-8.066 2.21-.626 4.41-1.29 6.59-2.016-2.98 6.952-9.454 11.664-16.312 14.438-5.246 1.883-9.919 2.723-15.5 3.062-4.78.314-9.464.713-14.188 1.5l2.563-2.625c2.974-3.424 4.738-6.949 6.625-11.062 3.576-7.736 8.795-13.372 14.812-19.313" fill="#f5f3f2"/><path d="M312 215c4.041 3.554 5.026 7.83 6 13 .23 4.348.184 8.651 0 13l1.434-2.238c4.76-7.305 9.723-14.267 15.566-20.762h1c.153 9.466-3.145 18.817-9.653 25.765A114.4 114.4 0 0 1 311 256q-.037-7.794-.055-15.588a2577 2577 0 0 0-.02-5.302c-.013-2.542-.018-5.084-.023-7.626l-.015-2.39c0-3.54.159-6.689 1.113-10.094" fill="#f8f5f5"/><path d="M114 188c3.193 1.597 3.77 4.883 5 8.063l.811 2.058c1.769 4.57 3.207 9.07 4.189 13.879l1.25-3.5c2.824-7.447 6.005-13.844 11.75-19.5h1c-.234 10.616-3.784 19.308-8.25 28.813-1.873 4.078-2.425 7.722-2.75 12.187-2.47-1.235-2.705-2.115-3.86-4.578-1.35-2.813-2.75-5.563-4.28-8.281-5.566-10.135-7.334-17.6-4.86-29.141" fill="#f6f3f2"/><path d="M310 188c6.561 5.79 11.278 13.39 13 22v4h2l.188-3.75c.837-7.656 3.952-15.268 8.812-21.25 2.255 2.255 1.37 6.824 1.387 9.86-.204 9.728-4.55 17.545-10.153 25.3-1.41 1.927-1.41 1.927-2.234 4.84h-2l-.227-1.766c-.836-5.213-2.209-9.384-4.71-14.047-4.204-7.965-6.305-16.167-6.063-25.187" fill="#f5f2f2"/><path d="M135 215c2 2 2 2 2.211 5.36a325 325 0 0 1-.05 4.316l-.017 2.31c-.017 2.442-.049 4.884-.082 7.327q-.042 3.647-.07 7.294a602 602 0 0 1-.054 4.542c-.035 3.755.15 7.201 1.062 10.851a591 591 0 0 1-7-6l-2.96-2.496C121.716 243.06 116.893 237.998 114 230l-.766-2.04c-1.128-3.399-1.245-5.574-.234-8.96 6.628 6.895 12.153 13.702 17 22l.113-2.93c.967-19.15.967-19.15 4.887-23.07" fill="#f6f4f3"/><path d="M173 278a245 245 0 0 1 13.5 10.625c4.316 3.57 8.372 6.15 13.5 8.375-3.095 2.063-5.967 3.243-9.437 4.563l-3.434 1.316c-8.425 3.019-17.252 4.014-25.606.336-3.935-1.91-7.743-4.016-11.523-6.215 3.12-1.56 6.43-1.121 9.852-1.098l2.345.005c2.476.005 4.952.018 7.428.03q2.515.008 5.031.014 6.173.017 12.344.049l-2.886-1.388c-4.882-2.528-7.918-6.582-9.934-11.69-.468-1.621-.836-3.27-1.18-4.922" fill="#f5f2f1"/><path d="M275 279c-1.199 6.393-4.083 10.713-9 15l-5 2 35 1c-2.696 2.696-4.08 3.687-7.437 5.125l-2.31 1.008c-10.55 4.06-21.08 2.005-31.253-2.133l-2.305-.934A175 175 0 0 1 248 298c2.398-1.898 4.785-3.457 7.438-5 4.81-2.937 8.956-6.622 13.17-10.342C272.795 279 272.795 279 275 279" fill="#f5f2f2"/><path d="m330 165 3 1c6.623 14.131 7.283 27.695 7 43h-5v-20l-2-1-.348 2.14c-.705 3.091-1.8 5.716-3.09 8.61-2.172 5.072-3.568 9.83-4.562 15.25h-2c-2.21-5.978-1.932-10.74-1-17l2 2c4.339-10.75 5.116-20.627 3-32z" fill="#621e16"/><path d="M123 164c3.856 3.856 3.258 9.604 3.563 14.813l.13 2.1q.158 2.542.307 5.087l.848-1.723C131.722 176.814 136.4 170.915 144 167c-2.37 9.96-6.988 16.794-13.68 24.379-3.093 3.798-4.614 7.82-5.32 12.621h-1q-1.105-4.413-2.2-8.828a215 215 0 0 0-1.445-5.469c-2.523-9.078-1.565-17.282 2.645-25.703" fill="#f6f3f2"/><path d="m148 253 2 1c.625 3.063.625 3.063 1 6l1-2c2.063-.625 2.063-.625 4-1l1.426 1.715 1.887 2.223 1.863 2.214c1.784 2.086 1.784 2.086 4.824 2.848l-2 4-3.437-2.937-1.934-1.653A50 50 0 0 1 156 263c1.827 9.477 5.004 16.441 11 24l-36-12v-3h3v-2c7.989 1.407 15.113 4.808 22 9l-1.812-1.75c-4.722-7.015-5.498-15.97-6.188-24.25" fill="#621e16"/><path d="M324 163c2 1 2 1 2.852 2.828C330.96 178.694 329.084 188.89 324 201l-.832-1.77c-1.133-2.163-2.373-3.98-3.856-5.917l-1.597-2.11a217 217 0 0 0-3.524-4.406C309.752 181.336 305 175.319 305 168c6.416 2.748 11.483 8.518 15.063 14.375C321 185 321 185 321 188h2l-.016-1.757q-.029-3.965-.046-7.93l-.026-2.764-.01-2.686-.016-2.46c.121-2.552.554-4.913 1.114-7.403" fill="#f7f5f4"/><path d="M227 205c2.375 1.625 2.375 1.625 4 4 .503 4.108.327 5.509-2 9-.024 3.211-.024 3.211.375 6.688l.336 3.574L230 231h-11l.07-2.773.055-3.602.07-3.586c.134-3.15.134-3.15-2.195-5.039-.432-3.892-.578-6.132 1.625-9.437 3.092-2.035 4.739-2.17 8.375-1.563m-90 18h1l.078 2.336.172 3.039.14 3.023c.332 2.755.332 2.755 2.657 3.954L143 236l-.484 2.023c-1.752 10.112-.95 20.331 2.484 29.977l-2.875-2.5c-7.147-6.122-14.552-11.915-22.125-17.5l1-3c-.39-2.143-.39-2.143-1-4a867 867 0 0 1 13.3 11.582c1.656 1.492 1.656 1.492 3.7 2.418l-1-3c-.499-9.664.307-19.363 1-29" fill="#621e16"/><path d="m216 299 3 2-1.655.456c-7.029 2.116-12.52 5.612-18.507 9.78-5.633 3.679-10.138 4.726-16.838 3.764-2.82-.803-5.31-1.804-8-3v-1l1.823-.277c6.727-1.165 12.415-3.347 18.552-6.286q2.604-1.224 5.21-2.44l2.284-1.089c4.8-2.045 8.965-2.154 14.131-1.908" fill="#f8f6f5"/><path d="m333 188 3 1q.04 4.156.063 8.313l.025 2.38.01 2.295.016 2.11C336 206 336 206 335 209h5v-12h1v13h-6v3h6v9h-1v-8l-4 2 1 1c.36 7.459.36 7.459-2 11v-9c-6.117 7.383-11.63 15.07-17 23-1.104-3.311-.927-5.247-.562-8.687l.308-3.012L318 228h1l1-6h1v7h2l.324-2.238c.721-2.946 1.696-4.53 3.488-6.95 6.631-9.73 8.077-18.147 7.188-29.812z" fill="#621e16"/><path d="M240 299c5.663 1.178 10.374 3.722 15.375 6.563 5.81 3.244 11.026 4.789 17.625 5.437l-1 2c-5.978 1.922-13.02 3.746-19.035 1.107-1.964-1.22-3.808-2.525-5.653-3.92l-5.567-4.005c-4.033-2.732-7.932-4.474-12.745-5.182 3.768-2.512 6.645-2.475 11-2" fill="#f5f2f2"/><path d="M261 59a893 893 0 0 1 5.813 1.375l3.269.773C273 62 273 62 276 64a340 340 0 0 1-.375 4.313c-.07.8-.14 1.6-.21 2.425C275 73 275 73 273 76c-5.661-.497-9.877-1.545-15-4 .486-4.777 1.089-8.563 3-13m56.75 260.813c3.037 1.602 4.457 3.265 6.25 6.187.43 3.152.39 4.479-1.54 7.055-5.568 4.86-5.568 4.86-9.71 5.257-3.722-1.776-4.975-3.62-6.75-7.312-.25-2.5-.25-2.5 1-5 3.172-3.157 6.182-5.876 10.75-6.187" fill="#621e16"/><path d="M298 219h1c-.201 8.828-2.032 16.996-4.184 25.524-.966 3.837-1.82 7.507-2.32 11.44-.66 4.035-2.482 5.39-5.496 8.036l-2 3-2-1 3-8-19-4c3.956-1.978 4.732-2.238 8.813-1.75l2.457.266c3.323.59 6.499 1.514 9.73 2.484 2.897-10.927 5.177-21.844 7-33l2 2z" fill="#ebe5e4"/><path d="M395 235c1.263 2.525.875 3.513.328 6.254l-.515 2.592-.563 2.716-.516 2.635c-1.17 5.767-2.74 11.268-4.734 16.803l-1-4h-3l-.586 1.934-.789 2.503-.773 2.497C382 271 382 271 380 272l.48-1.738c1.75-6.37 3.456-12.751 5.145-19.137l.66-2.486c1.02-3.863 1.998-7.705 2.715-11.639l2.438-.437c2.483-.304 2.483-.304 3.562-1.563M219 353q3.688-.08 7.375-.125l2.117-.05c1.837-.018 3.674.072 5.508.175 2 2 2 2 2.195 4.82l-.07 3.305-.055 3.32L236 367h-2v-5h-12v5h-3zm147-205c4.357 3.843 5.817 9.193 6.188 14.875-1.698 3.037-3.874 3.555-7.083 4.645C363 168 363 168 359 168v-2l3-1c-.458-3.47-.891-6.674-2-10h-6l1-3c2.504-1.168 2.504-1.168 5.563-2.187 1.011-.345 2.023-.689 3.066-1.043z" fill="#621e16"/><path d="m394 205 3 1c.116 4.396.187 8.79.25 13.188l.102 3.775.039 3.642.063 3.349c-.56 3.756-1.75 5.42-4.454 8.046h-3c.09-1.22.09-1.22.184-2.465l.253-3.472.282-3.825c.207-2.96.366-5.918.5-8.883l.111-2.322q.106-2.26.19-4.521c.257-5.289.257-5.289 2.48-7.512M299 74c4.7 1.802 9.096 3.772 13 7 .813 2.313.813 2.313 0 5-1.452 2.83-2.981 5.535-5 8h-2l1-5q-1.932-1.257-3.875-2.5l-2.18-1.406c-1.864-1.257-1.864-1.257-3.945-1.094-1.625 1.458-1.625 1.458-3 3l-1-2c1.434-2.602 1.434-2.602 3.438-5.625l1.996-3.04zM93 257c3.444 9.41 3.444 9.41 3 14a563 563 0 0 1-4.312 2l-2.426 1.125C87 275 87 275 84 275v-2l4-1-4-10h-5c1-3 1-3 2.672-3.984 4.134-1.524 6.974-2.513 11.328-1.016m-2-126c4.8.787 7.88 2.495 12 5v2l-5-1-5 9 3 2-1 3-11-6c.906-4.532 1.541-6.218 4.063-9.812l1.66-2.395zm43 75c1.979 3.636 2.525 6.884 3 11l-2-1c-3.272 8.56-3.674 16.951-4 26-3.195-3.135-5.857-6.03-8-10 .25-3.375.25-3.375 1-6l2 3 .625-3.625c1.48-6.805 4.518-13.06 7.375-19.375m-17 98c3.33 1.432 5.4 3.182 7.813 5.875l1.894 2.055C128 314 128 314 127.824 316.133 127 318 127 318 125 320c-2.809 0-4.44-.441-6.45-2.445l-1.487-1.68c-1.438-1.655-1.438-1.655-3.063-2.875-3.302-.036-3.302-.036-6 1 1.382-3.21 2.924-5.05 5.625-7.25l1.914-1.578zm31-51 2 1c.625 3.063.625 3.063 1 6l1-2c2.063-.625 2.063-.625 4-1l1.426 1.715 1.887 2.223 1.863 2.214c1.784 2.086 1.784 2.086 4.824 2.848l-2 4-3.437-2.937-1.934-1.653A50 50 0 0 1 156 263l1 13h-4c-3.328-7.413-4.116-15.009-5-23" fill="#621e16"/><path d="M140 148h2c-2.207 10.03-5.23 17.539-11 26a86 86 0 0 0-2 4h-1c.188-10.907 2.199-19.93 10-28h2z" fill="#f1edec"/><path d="M375 224c1.938 1.125 1.938 1.125 3 3 .546 3.668.479 5.326-1.687 8.375C374 237 374 237 371.5 237.563c-2.5-.563-2.5-.563-4.812-2.75-1.82-3.033-2.324-4.36-1.688-7.813 2.34-3.992 5.772-3.453 10-3m-294 0c1.938 1.125 1.938 1.125 3 3 .544 3.653.438 5.343-1.625 8.438C80 237 80 237 76.938 236.938c-4.357-1.39-4.357-1.39-5.938-3.938-.39-3.118-.504-5.11 1.063-7.875 3.044-1.768 5.5-1.493 8.937-1.125" fill="#621e16"/><path d="M306 148c5.636 2.508 9.406 7.036 11.813 12.688 1.764 5.26 1.92 10.807 2.187 16.312a167 167 0 0 1-4-5l-1.46-1.809c-5.057-6.788-6.721-14.072-8.54-22.191" fill="#f2eeed"/><path d="M277 135c2.034 3.73 3 5.67 3 10a1010 1010 0 0 1-7.562-1.312l-2.135-.358c-4.807-.864-8.88-2.255-13.303-4.33 5.65-3.767 13.3-4.362 20-4m-139 46 1 3-2 3 2 1c.25 7.625.25 7.625-2 11v-9c-5.896 7.27-9.596 13.938-12 23l-2-1a109 109 0 0 1-1-7h2l.688-3.5c2.103-8.298 7.622-14.334 13.312-20.5m122 170v1l-13 2-1 3 1.758-.473c4.767-1.188 8.37-1.776 13.242-.527l1 5c-5.01 4.267-9.592 4.126-16 4l-1-3 14-1v-3l-2.5.5c-3.936.562-7.528.635-11.5.5-1-1-1-1-1.187-3.437C244 353 244 353 246 351c2.242-.703 2.242-.703 4.875-1.25l2.617-.578c2.836-.194 4.128.344 6.508 1.828M155 182h1l.26 1.924q.587 4.35 1.178 8.701l.408 3.027c.65 4.796 1.316 9.58 2.154 14.348h-8c-.27-6.247.165-12.309.938-18.5l.263-2.14c.668-5.097.668-5.097 1.799-7.36m16-47c6.848.486 13.33 1.36 20 3-2.16 2.16-3.156 2.5-6.027 3.29l-2.4.663-2.51.672-2.499.695C171.411 145 171.411 145 168 145c.512-3.755 1.218-6.667 3-10m145-49c3.647.299 5.623 2.154 8.25 4.563l2.14 1.94L328 94l-1 4-1.75-2.312c-1.99-2.376-3.581-4.138-6.25-5.688l-3 1 1.75 1.355 2.25 1.832 2.25 1.793C324 98 324 98 324.375 100.613 324 103 324 103 322 105c-4.173-.27-6.307-1.76-9.312-4.562l-2.114-1.942L309 97l1-4 2.25 2.313c3.168 3.096 5.54 5.284 9.75 6.687-1.15-3.453-2.32-4.38-5.062-6.687l-2.223-1.887L313 92c.573-2.867.861-3.861 3-6m-24 97c2.909 2.909 2.718 6.204 3.125 10.125l.262 2.227c.544 4.91.691 9.71.613 14.648h-8q.716-5.344 1.438-10.687l.408-3.053.4-2.96.365-2.713c.383-2.55.862-5.063 1.389-7.587M105 289c3.331 1.405 5.093 2.989 7.25 5.875l1.578 2.055C115 299 115 299 115 303h-2l-2.93-5.176c-2.166-3.896-2.166-3.896-6.07-5.824l1.059 1.793 1.379 2.394 1.37 2.356c1.237 2.55 1.931 4.634 2.192 7.457-2 2-2 2-4.25 2.125-4.23-1.73-6.604-5.15-8.75-9.125v-4h2l1.313 2.75c1.399 2.695 2.682 4.984 4.687 7.25h2c-1.053-3.072-2.057-5.067-4.187-7.562C101 295 101 295 101.063 292.813 102 291 102 291 105 289" fill="#621e16"/><path d="M152 212h8v1h-7c.32 11.754 2.231 22.59 5 34 .345 1.664.684 3.33 1 5h-2l-1 2c-4.1-13.507-7.716-26.75-7-41h1l1 10z" fill="#f0ebea"/><path d="M329 176h1l-.07 3.21q-.029 2.083-.055 4.165c-.017.699-.034 1.397-.05 2.117-.018 1.837.072 3.674.175 5.508l2 2-1.023 2.309c-2.683 6.21-4.757 12.036-5.977 18.691h-2c-2.21-5.978-1.932-10.74-1-17l2 2c2.89-7.702 4.676-14.766 5-23m-46 167v2l-1.828.402-2.422.536-2.39.527c-2.129.483-4.245.997-6.36 1.535v3l1.758-.656c4.536-1.617 8.353-2.833 13.242-2.344 1 1 1 1 1.375 3.375C286 354 286 354 283.813 355.688L281 357l-2.5 1.25c-2.902.87-4.619.573-7.5-.25 2.835-2.835 5.961-3.161 9.785-4.121L283 353l1-3-2.266.91-2.984 1.152-2.953 1.16c-2.85.793-4.094.863-6.797-.222-1-1-1-1-1.062-3.562L268 347q1.904-.972 3.813-1.937l2.144-1.09c3.496-1.665 5.37-2.113 9.043-.973m-122-3c6.153.318 9.84 1.668 15 5v3h-2v-2l-1.863-.621L162 342c.69 3.15.69 3.15 3.285 4.387l2.778 1.3 2.785 1.325L173 350c.125 2.375.125 2.375 0 5l-2 2c-4.513-.265-9.365-2.325-13-5-.734-2.137-.734-2.137-1-4l2.047 1.059 2.703 1.378 2.672 1.372c2.22 1.026 4.192 1.706 6.578 2.191v-3l-1.898-.586-2.477-.789-2.46-.773C162 348 162 348 160 346c-.187-2.562-.187-2.562 0-5zm18 6c2.159.394 4.303.865 6.438 1.375l3.558.836C192 349 192 349 194 350v2q-2.376-.467-4.75-.937l-2.672-.528c-2.21-.459-4.393-.968-6.578-1.535l1 3c2.097 1.023 2.097 1.023 4.563 1.688.826.25 1.652.502 2.503.761L190 355v2l-10-2-2 3 2.117.402 2.758.536 2.742.527C188 360 188 360 190 361v2a680 680 0 0 1-4.687-.875l-2.637-.492c-2.7-.639-5.13-1.54-7.676-2.633q.713-2.97 1.438-5.937l.808-3.34C178 347 178 347 179 346M81 149h3l-.656 1.828-.844 2.422-.844 2.39c-.835 2.594-.835 2.594-.656 6.36l2 1 .375-2.125c.663-3.052 1.597-5.928 2.625-8.875h2c-.508 4.318-1.197 8.033-3 12h3l4-11h3c-1.543 4.72-3.078 9.417-5 14-4.973-.497-8.638-1.553-13-4 .99-4.836 1.957-9.476 4-14m251-50 4 2v2h2c5 5.476 5 5.476 5 8-2.992-1.364-5.29-2.95-7.75-5.125l-1.86-1.633L332 103c0 3.59.664 4.109 3 6.688l1.688 1.886L338 113c-3.592 0-4.024-.632-6.562-3-2.337-2.425-2.337-2.425-5.438-3l1.75 2.117 2.25 2.758 2.25 2.742C334 117 334 117 334 119c-3.444-1.448-5.361-3.277-7.75-6.125l-1.86-2.195L323 109c1.382-3.21 2.924-5.05 5.625-7.25l1.914-1.578zm-51-34c4.972 1.492 9.418 3.605 14 6v2c-4.389-.665-7.981-2.188-12-4l-2 3c.638.182 1.276.364 1.934.55l2.503.763 2.497.738L290 75l1 3-12-4c.69 3.15.69 3.15 3.285 4.387l2.777 1.3 2.786 1.325L290 82v2c-5.015-1.54-9.615-3.03-14-6 .607-4.86 2.728-8.74 5-13" fill="#621e16"/><path d="M296 194c2.348 3.522 2.377 5.508 2.625 9.688l.227 3.574L299 210h12v3h-12l-.375 5.25c-.29 4.07-.74 5.981-2.625 9.75v-16h-2v-2h2z" fill="#f6f3f3"/><path d="m99 273 7 14h-3a805 805 0 0 1-2.5-4.375l-1.406-2.46C98 278 98 278 98 276l-2 1c.547 3.375 1.055 5.082 3 8-.375 2.188-.375 2.188-1 4q-1.257-1.932-2.5-3.875l-1.406-2.18C93 281 93 281 93 279l-2 1c.57 3.994 1.929 6.578 4 10v3h-2a403 403 0 0 1-3.062-5.25l-1.723-2.953C87 282 87 282 87.039 279.812c1.334-2.516 2.889-3.26 5.398-4.562l2.434-1.297C97 273 97 273 99 273m86-214c3.429 1.51 5.957 3.517 8.75 6l2.422 2.125C198 69 198 69 198 71l-1.758-.254c-4.665-.608-8.596-.818-13.242.254l-1 4h-2q.683-2.596 1.375-5.187l.773-2.918c.8-2.717 1.755-5.286 2.852-7.895m-73 43 17 3-1 2-2.25.313c-3.803.95-5.282 2.686-7.75 5.687-1.336 3.167-1.336 3.167-2 6-3.048-5.173-3.182-11.154-4-17" fill="#621e16"/><path d="M317.125 323.063C319.3 324.15 320.593 325 322 327c0 3.12-1.066 4.067-3.25 6.313C316 335 316 335 313.313 334.875 311 334 311 334 309 332c.094-3.567.802-4.797 3.313-7.375C315 323 315 323 317.125 323.063" fill="#fafaf7"/><path d="M171 63h3a742 742 0 0 1 2 4.813l1.125 2.707C178 73 178 73 178 76c-5.65-.601-10.662-2.075-16-4l1.5 3.313C165 79 165 79 165 82c-3-1-3-1-4.168-3.215l-1.02-2.722-1.042-2.715C158 71 158 71 158 69c5.425.693 10.67 1.77 16 3zm-17 10c2.807 2.683 4.774 4.587 5.398 8.496C159 84 159 84 157.207 85.836l-2.394 1.539-2.356 1.586c-3.01 1.273-4.403 1.127-7.457.039-2.46-2.848-3.91-4.766-4.187-8.562C143.12 75.702 148.595 71.435 154 73m-7.687 4.5-1.887 1.406L143 80c.724 3.344 1.817 5.343 4 8 3.594-1.335 6.755-2.96 10-5-.596-3.34-1.683-5.505-4-8-3.396 0-4.066.522-6.687 2.5M137 223h1l.078 2.336.172 3.039.14 3.023L139 234l4 2-2 18h-1l-1-5-3 3c-.15-9.716.304-19.316 1-29m-6.187 95.313c4.504.971 7.26 3.167 10.187 6.687.75 2.5.75 2.5 0 5-2.125 3.375-2.125 3.375-5 6-3.887.248-6.298-.972-9.375-3.187C124 330 124 330 123.375 327c.985-4.728 2.602-7.506 7.438-8.687M129 321c-1.853 1.693-1.853 1.693-3 4-.466 4.179-.466 4.179 2.75 6.813 2.9 2.39 2.9 2.39 5.438 2.187 2.127-1.174 3.436-1.973 4.812-4 .148-2.517.148-2.517-1-5-2.225-2.397-2.225-2.397-5-4zm-32 0c5.29 4.408 10.188 9.076 15 14l-3 2-2 3-10-10 3-3-1.5-1.312C97 324 97 324 97 321m244-31c4.81 2.547 8.324 4.99 12 9-5.3 1.803-10.603 3.507-16 5l1.531 1.023 1.969 1.352 1.969 1.336L344 309v2c-3.384-.617-5.52-1.87-8.25-3.937l-2.14-1.59L332 304v-2l15-4c-3.42-3.842-3.42-3.842-6-5zm-50-20c2.154 2.622 3.4 4.644 4 8l5-2v2l3 2-2.633.77-3.492 1.043-3.445 1.019c-3.48 1.092-3.48 1.092-6.735 2.867L284 287l-2-1 1.207-1.469c3.702-4.683 5.966-8.849 7.793-14.531m-146 59h2l5 14 4-5 3-1c-1.566 4.308-3.683 8.062-6 12h-2l-1.059-3.027-1.379-3.91-.697-1.999c-.985-3.287-.985-3.287-2.865-6.064l-4 7-3-1a769 769 0 0 1 3.375-5.5l1.898-3.094zm201.625-214.75c3.27 2.41 5.614 5.07 7.375 8.75-.187 2.938-.187 2.938-1 5h-2l-.312-2.25c-.735-2.936-1.833-4.411-3.688-6.75v-2l-7 3c.53 3.813 1.36 6.165 4 9 2.083 1.252 2.083 1.252 4 2l-1 2c-2.743-.078-4.458-.47-6.445-2.414-2.211-2.868-3.454-5.166-4.305-8.711.985-3.777 2.62-5.058 5.879-7.078C344 114 344 114 346.625 114.25M55 180l3 1q-.212 3.375-.437 6.75l-.247 3.797c-.241 2.636-.559 4.933-1.316 7.453l-5 1c-.582-7.596.731-13.141 4-20m48-67c4.601 1.489 7.502 3.746 11 7v2l-15 4 7 6-2 2-10-7 1-3c2.363-.95 2.363-.95 5.313-1.687l2.925-.762C106 121 106 121 110 121v-2l-2.375-.75c-2.948-1.404-3.527-2.257-4.625-5.25m201 219 1 2-3.687.875c-3.231.803-6.256 1.788-9.313 3.125l4 7c3.558-.61 6.683-1.578 10-3v-4h2c-.078 2.743-.47 4.458-2.414 6.445-2.912 2.245-5.15 3.46-8.774 4.243C294 348 294 348 291.563 345.375 290 342 290 342 289.688 338.938c1.786-3.996 4.225-5.119 7.989-7.153 2.625-.887 3.794-.863 6.324.215M71 184c4.833-.083 9.237.047 14 1-1.473 3.45-3.424 5.607-6.125 8.188A188 188 0 0 0 75 197v1l8 1v2q-2.406.039-4.812.063l-2.708.035C73 201 73 201 70 200c1.477-3.452 3.438-5.65 6.125-8.25l2.195-2.14L80 188l-9-2zm134.75 167.75c3.71.081 6.788.865 10.25 2.25v3l-3.687-1c-3.185-.803-6.01-1.206-9.313-1v8h12l-1 3c-1.937.081-3.875.14-5.812.188l-3.27.105C202 366 202 366 200.102 364.773c-1.456-2.342-1.294-3.628-.915-6.336l.293-2.378c.99-3.922 2.33-4.046 6.27-4.309M230 302c6.411-1.012 10.999 2.402 16 6a110 110 0 0 1 4 4l-2 1 1 5-2.937-2.562c-3.582-3.079-7.289-5.966-11.047-8.825A50 50 0 0 1 230 302m42-257c5.777-.608 10.997 1.183 16 4l1 3-1 2-8-1-1-3-8-1zm57 261c3.456 1.536 6.282 3.358 9 6 .688 2.313.688 2.313 0 5-2.387 3.837-4.825 6.45-8.937 8.375-4.235-.518-5.895-2.575-8.743-5.613C319 318 319 318 319 316c2.195.984 3.797 1.779 5.438 3.563 2.054 1.89 3.842 2.07 6.562 2.437l.813-1.937C333 318 333 318 336 317c-1.528-2.75-2.953-4.953-5.187-7.187L329 308zM223.941 54.902l3.621.035 3.63.028L234 55l2 4-3-1a166 166 0 0 0-5.687-.562l-3.012-.254L222 57v9q2.656-.212 5.313-.437l2.988-.247c2.793-.234 2.793-.234 5.699-1.316l-1 4q-3.469.039-6.937.063l-3.903.035C221 68 221 68 220 67a98 98 0 0 1-.125-5.5l-.008-3.031c.194-3.6.418-3.445 4.074-3.567M351 275h3v2l-2.437 2.25c-2.85 3.058-3.278 4.661-3.563 8.75 2.647 1.46 3.894 2 7 2 1.962-3.668 3.393-6.872 4-11h2c.747 5.979-1.677 9.324-5 14-4.557-.438-7.577-.85-11-4 .459-5.732 1.855-9.855 6-14m7-145c-1 3-1 3-3.937 4.688C351 136 351 136 349 136l5 10 2.688-.937A62 62 0 0 1 365 143v2a226 226 0 0 1-3.687 2l-2.075 1.125c-2.553.998-4.52 1.027-7.238.875a291 291 0 0 1-2.5-4.187l-1.406-2.356c-1.201-2.698-1.301-4.538-1.094-7.457a805 805 0 0 1 4.375-2.5l2.46-1.406C356 130 356 130 358 130" fill="#621e16"/><path d="m150 205 .875 1.938c.953 2.214.953 2.214 3.125 3.062v2h-2v17h-1c-1.135-5.391-1.074-10.515-1-16h-13v-3l12-1z" fill="#f6f3f2"/><path d="m175 285 1.688 2.25c3.253 3.87 6.683 6.693 11.312 8.75v1h-20l1-2h3v-2h6l-5-6h2z" fill="#621e16"/><path d="M157 252h3v3l2.25-1.062c2.942-1.003 3.928-1.067 6.75.062l3 2-10 2 3 8c-4.525-1.508-6.708-4.909-9-9 .125-3 .125-3 1-5" fill="#eee9e7"/><path d="M127 222h1l1 5h2v15c-3.331-3.331-5.786-5.9-8-10 .25-3.375.25-3.375 1-6l2 3zm95.438-184.125 2.37-.008C227 38 227 38 230 39l-1 3c-3.544 1.505-7.467 1.098-11.25 1.063l-3.828-.028L211 43c6.303-5.142 6.303-5.142 11.438-5.125" fill="#621e16"/><path d="M211 94h8l1 2-2.422.629c-9.945 2.79-18.406 7.045-26.578 13.371l-2-2c6.924-5.316 13.826-8.952 22-12z" fill="#e2d8d6"/><path d="m314 169 7 7 2-3v15h-2l-1.023-2.082-1.352-2.73-1.336-2.708c-1.308-2.626-1.308-2.626-3.289-5.48h2z" fill="#621e16"/><path d="M221 355h12l1 4c-1 1-1 1-3.723 1.098l-3.34-.036-3.347-.027L221 360z" fill="#ede7e9"/><path d="M307 245h1l1 12 4-3h2c-.483 4.31-1.602 6.024-4.937 8.75l-2.153 1.797C306 266 306 266 304 267l.938-3.125c1.572-6.177 1.724-12.534 2.062-18.875m-197-53 2 1c.379 2.04.379 2.04.563 4.625.334 4.162.809 8.248 1.437 12.375l-6-1q.212-3.407.438-6.812c.08-1.265.162-2.53.246-3.833C109 195 109 195 110 192m268-3c.621 1.828.621 1.828 1 4-1.937 2.75-1.937 2.75-4 5 1.37 3.161 1.99 3.993 5 6l-1 4-1.285-1.496c-4.058-4.544-4.058-4.544-9.652-6.441L365 200v-2h3.125c2.753-.353 3.708-.828 5.676-2.848A93 93 0 0 0 378 189m-243-22c0 3 0 3-1 6l2 1-2.25 2.5c-2.975 3.542-4.803 7.317-6.75 11.5h-1v-11h3l.805-1.68 1.07-2.195 1.055-2.18C133 169 133 169 135 167m175-4c4.359 3.487 4.946 6.728 6 12-3.392-.593-5.21-1.767-7.75-4.062l-1.86-1.66L305 168l-1 2v-3c3-2.187 3-2.187 6-4m-19 91 2 4h3l-1 5h-3c-1.907 1.763-1.907 1.763-3.687 4l-1.887 2.25L285 271l-1-2-3 1 1-3h3l.813-1.75c1.216-2.306 2.49-4.27 4.187-6.25h2zm-136 3q1.724 1.432 3.438 2.875l1.933 1.617C162 263 162 263 163 265l3 1-2 4-3.437-2.937-1.934-1.653A50 50 0 0 1 156 263v5l-2-1c-.594-2.649-.742-5.292-1-8h2zm218-84h3l2 14-3-1v-4l-2.062.5c-3.354.57-6.542.567-9.938.5v-2c3.674-1.176 7.17-1.074 11-1zM245 40c11.522-.185 11.522-.185 17 1l-4 1v4c-5.053-.632-9.296-2.135-14-4zm94 153c1.129 5.361 1.097 10.553 1 16h-5q.171-3.72.375-7.437c.03-.708.062-1.415.094-2.143.104-1.812.31-3.618.531-5.42 2-1 2-1 3-1M131 85l2 2-3 3c1.652 3.579 3.783 6.748 6 10-3 0-3 0-4.605-1.531l-1.583-1.969-1.605-1.969L127 93l-6 3v-3c2.188-2.043 2.188-2.043 5-4.187l2.813-2.168zm109-30h3c2.188 2.5 2.188 2.5 4 5l1.625-.437c2.774-.658 5.56-1.115 8.375-1.563-1.799 1.988-3.193 3.097-5.625 4.313-2.702 1.534-2.702 1.534-3.187 4.874L248 70h-2l-.187-3.687c-.526-4.5-2.402-6.34-5.813-9.313z" fill="#621e16"/><path d="M152 212h8v1h-7l1 19h-2l-1 4c-1.71-7.756-2.25-15.066-2-23h1l1 10z" fill="#d7cbc8"/><path d="M153 125c4.32.616 8.252 1.642 12.375 3.063l3.21 1.097L171 130l-2 1v2c-6.306-1.11-11.375-2.932-17-6z" fill="#ece6e4"/><path d="M299 74c4.687 1.611 9.185 3.81 13 7 .75 2.5.75 2.5 0 5-2 2.813-2 2.813-4 5l1-8-9-5-3 3c.875-5.875.875-5.875 2-7M105 289c3.331 1.405 5.093 2.989 7.25 5.875l1.578 2.055C115 299 115 299 115 303h-2l-2.93-5.176c-2.166-3.896-2.166-3.896-6.07-5.824v6c-1.562-1.25-1.562-1.25-3-3 .125-2.062.125-2.062 1-4z" fill="#621e16"/><path d="M91 258a345 345 0 0 1 1.5 3.75l.844 2.11C94 266 94 266 94 270l-5-1-3-10c3-1 3-1 5-1" fill="#f2f0ea"/><path d="m294 126 1 2q-2.34.976-4.687 1.938l-2.637 1.09C285 132 285 132 282.23 132.503L280 133l-1 2v-4l-2-1q3.302-1.102 6.605-2.195c1.954-.657 3.895-1.35 5.832-2.055C292 125 292 125 294 126" fill="#efeae9"/><path d="M369 258h2q-.466 2.156-.937 4.313l-.528 2.425C369 267 369 267 368 270c-5.277-.539-9.256-1.773-14-4v-2q2.438.716 4.875 1.438l2.742.808C364 267 364 267 366 268zM199 56h2c1.262 2.525 1.099 4.312 1.063 7.125l-.028 2.758L202 68l2-1c1.54-.07 3.083-.085 4.625-.062l2.477.027L213 67v2l-13 1zm61 295v1l-13 2-1 3h6l-1 2c-2 .043-4 .04-6 0-1-1-1-1-1.187-3.437C244 353 244 353 246 351c2.242-.703 2.242-.703 4.875-1.25l2.617-.578c2.836-.194 4.128.344 6.508 1.828m62-154c3 2 3 2 3.688 3.688.61 4.522.713 8.935-.688 13.312h-2c-2.21-5.978-1.932-10.74-1-17M75 166h2l-1 7 3.813.438c2.614.3 4.661.72 7.187 1.562v2c-8.571-1-8.571-1-12-2l-1 5h-2z" fill="#621e16"/><path d="m92 133 3 1c-.607 4.128-2.038 7.332-4 11l-4-1c.531-4.515 2.366-7.347 5-11" fill="#f0f3f2"/><path d="M230 94h5v2l2.05.285c3.653.885 6.815 2.448 10.137 4.153l1.905.947c2.648 1.34 4.796 2.503 6.908 4.615l-1 3c-.51-.447-1.02-.895-1.547-1.355C246.23 101.638 238.316 97.598 229 96z" fill="#dbd0ce"/><path d="m300 77 9 5v4c-4.515-.531-7.347-2.366-11-5z" fill="#f3f5f4"/><path d="M219 302c-3.887 3.18-7.9 6.106-12 9l-2-1v-4c4.975-3.249 7.882-4.5 14-4" fill="#621e16"/><path d="M366 151c3.429 7.286 3.429 7.286 3 12h-4a480 480 0 0 1-1.5-3.812l-.844-2.145C362 155 362 155 362 152c2-1 2-1 4-1" fill="#f1f3f2"/><path d="M368 149v6l-2-4-4 1 1 9c-2-3-2-3-3-6h-6l1-3c2.434-1.203 2.434-1.203 5.438-2.25l2.996-1.078C366 148 366 148 368 149M239 38l11 1v1l-5 1 1.813.875C249 43 249 43 252 45l-16-1 3-2-1-2z" fill="#621e16"/><path d="M117 307q1.731 1.36 3.438 2.75l1.933 1.547c1.817 1.9 2.233 3.139 2.629 5.703-4 0-4 0-5.703-1.312L117.75 314l-1.578-1.687L115 311z" fill="#f6faf9"/><path d="M274 281h4c-1.42 5.679-4.394 9.532-8 14l-4-1 1.242-1.574c2.834-3.668 5.356-6.94 6.758-11.426M90 256c3 1 3 1 3.95 2.89 2.46 7.867 2.46 7.867 2.05 12.11-2.647 1.46-3.894 2-7 2l1-4 4 1-.656-1.863-.844-2.45-.844-2.425C91 261 91 261 91 258l-2-1z" fill="#621e16"/><path d="M292 245h1a75.6 75.6 0 0 1-1 14l-5 1c.506-4.957 1.266-11.266 5-15" fill="#f0ebea"/><path d="M219 353h15l1 2h-14l-1 12h-1zm114-165 3 1q.04 4.156.063 8.313l.025 2.38.01 2.295.016 2.11C336 206 336 206 335 209h5v-12h1v13h-6l-1 3c-.8-3.287-1.097-4.71 0-8 .096-2.533.14-5.03.125-7.562l.012-2.077c.05-3.807.05-3.807-1.137-7.361m-220-86 16 3-1 2-2.375.438c-2.876.616-3.789 1.34-5.625 3.562l-3-1 3-4-5-1-1 2zm73-39c3.064-.438 5.166-.609 7.734 1.266 1.55 1.52 2.984 2.98 4.266 4.734v2l-2.75-.937C191.642 68.883 188.795 68 185 68z" fill="#621e16"/><path d="M150 188h1c.92 4.655 1.122 9.147 1.063 13.875l-.014 2.086q-.02 2.52-.049 5.039h-3q-.04-3.562-.062-7.125l-.026-2.016c-.02-4.066.3-7.871 1.088-11.859" fill="#e6dedc"/><path d="m310 93 2.25 2.313c3.874 3.785 6.306 5.93 11.75 6.687l-2 3c-4.172-.519-6.254-1.712-9.312-4.562l-2.114-1.942L309 97zM113 309h2c1.727 1.75 1.727 1.75 3.625 4l1.914 2.25L122 317c3.278-.752 3.278-.752 5-4 .688 1.813.688 1.813 1 4-1.125 1.813-1.125 1.813-3 3-2.864.077-4.437-.543-6.656-2.344-1.557-1.498-3.023-2.945-4.344-4.656v-2l-2-1z" fill="#621e16"/><path d="M342 219h1c.081 2.104.14 4.208.188 6.313l.105 3.55C343 232 343 232 341.551 233.918 340 235 340 235 339 235c.114-2.105.242-4.209.375-6.312.07-1.172.14-2.344.21-3.551C340 222 340 222 342 219" fill="#f8f5f5"/><path d="m154 73 2 2c-.375 2.125-.375 2.125-1 4l-2-3c-3.505.65-6.152 1.845-9 4-.887 2.591-.887 2.591-1 5-2-2-2-2-2.062-4.312 2.055-5.2 7.388-8.823 13.062-7.688m166 250c2 1.188 2 1.188 4 3 .355 2.371.355 2.371 0 5-1.574 2.055-1.574 2.055-3.687 3.875l-2.075 1.867C316 338 316 338 313.23 337.695L311 337l1.625-.687c3.288-1.817 5.769-3.585 8.375-6.313.025-3.75.025-3.75-1-7m4-79 2 1-2 2.313c-2.299 2.53-2.299 2.53-2 5.687l-7 4-1-4zm-186-63 1 3-2 3 2 1c.25 7.625.25 7.625-2 11v-9l-3 2h-3c.593-3.392 1.767-5.21 4.063-7.75l1.66-1.86z" fill="#621e16"/><path d="M262 62c4.318.508 8.033 1.197 12 3v3c-8.571-.857-8.571-.857-12-3z" fill="#f2f1f0"/><path d="M205.688 351.813c3.753.033 6.806.785 10.312 2.187v3l-3.687-1c-3.185-.803-6.01-1.206-9.313-1l-1 8h-1a758 758 0 0 1-.062-4.937l-.036-2.778c.163-3.817.793-3.27 4.786-3.473" fill="#621e16"/><path d="M104 292c2.46.389 3.722.714 5.484 2.523l1.266 1.852 1.297 1.836C113 300 113 300 113 303c-2.46-.389-3.722-.714-5.484-2.523l-1.266-1.852-1.297-1.836C104 295 104 295 104 292" fill="#f5f4ec"/><path d="M267 62c5.625-.25 5.625-.25 9 2 .438 2.375.438 2.375 0 5-2 2.313-2 2.313-4 4v-3l-2.437-.375L267 69l-1-2 8 1-1-3c-3.008-1.225-3.008-1.225-6-2zM157 348l2.047 1.059 2.703 1.378 2.672 1.372c2.22 1.026 4.192 1.706 6.578 2.191l1-3v5c-2.652 1.008-3.81 1.064-6.543.145l-2.644-1.332-2.668-1.293C158 352 158 352 157.199 349.824z" fill="#621e16"/><path d="M261 68c7.625.875 7.625.875 11 2v4q-2.159-.427-4.312-.875l-2.426-.492C263 72 263 72 260 70z" fill="#f5f3f3"/><path d="M221 58h1v8q2.656-.212 5.313-.437l2.988-.247c2.793-.234 2.793-.234 5.699-1.316l-1 4h-14z" fill="#621e16"/><path d="M296 185c3.475 5.792 3.115 12.468 3 19h-1l-1-7-1 5h-1c-.222-2.27-.427-4.54-.625-6.812l-.352-3.833C294 188 294 188 296 185" fill="#ded3d0"/><path d="m88 278 3 1 .313 2.688c.703 3.39 1.88 5.406 3.687 8.312v3h-2a403 403 0 0 1-3.062-5.25l-1.723-2.953C87 282 87 282 87.316 279.64zm7-144 7 1 1 3-5-1-5 9-2-1c1.213-3.724 2.509-7.378 4-11" fill="#621e16"/><path d="M100 296h3c1.422 1.426 1.422 1.426 2.75 3.313l1.36 1.863C108 303 108 303 107 306c-3.355-1.388-5.15-2.856-7-6z" fill="#f5f4ec"/><path d="m173 129 1 3 7 1-1 2h-11v-4z" fill="#f6f4f4"/><path d="M157 52v5l-7 3c-1.125-4.75-1.125-4.75 0-7 2.386-.612 4.535-1 7-1m180 162h3q.079 2.124.125 4.25l.07 2.39c-.212 2.567-.908 4.152-2.195 6.36l-2-2c.033-2.729.564-5.297 1-8l-2-1z" fill="#621e16"/><path d="m274 128 3 1v2h2l2 7-3 1-.812-1.875C276.044 134.7 276.044 134.7 273 133z" fill="#f7f5f4"/><path d="M235 95c5.913-.257 11.24.702 17 2l-4 1 1 3c-4.72-1.543-9.417-3.078-14-5zm71 243h2c-.078 2.743-.47 4.458-2.414 6.445-3.88 2.991-6.55 4.17-11.586 3.555v-2l3.188-.875c3.04-.897 5.9-1.89 8.812-3.125z" fill="#621e16"/><path d="M335 218h1l-1 10-2-3-7 7c0-4.161 1.796-5.534 4.438-8.687l2.496-3.012z" fill="#e6dedc"/><path d="M111 172h1a424 424 0 0 1-.375 4.75c-.07.882-.14 1.763-.21 2.672-.414 2.569-1.127 4.336-2.415 6.578-2-3-2-3-1.812-6.437.775-3.4 1.432-5.084 3.812-7.563" fill="#f5f2f1"/><path d="M103 113c4.601 1.489 7.502 3.746 11 7v2l-7 1 1-2h2v-2l-2.375-.75c-2.948-1.404-3.527-2.257-4.625-5.25m213-27c3.66.585 5.545 2.083 8.25 4.563l2.14 1.94L328 94l-1 4-1.562-2.25c-2.913-3.286-5.562-4.738-9.438-6.75zM138 248l2 1c1.172 3.984 1.08 7.874 1 12l-3-1q-.29-2.718-.562-5.437l-.317-3.06L137 249zm-13-49 .375 1.938L126 203l2 1-3 9-2-1a109 109 0 0 1-1-7h2zm81 181q3.51.43 7 1l1 3c-2.709 1.354-5.01 1.065-8 1-.562-1.937-.562-1.937-1-4zm122-137 2 1c-1.491 3.795-3.757 5.61-7 8l-2-3zm-217-25 2 1v8l-1-2h-2l1 3a100 100 0 0 1-1 6h-1l-1-14 2 2z" fill="#621e16"/><path d="M312 215c1.5 1.313 1.5 1.313 3 3v3l-2 1c-.312 2.714-.513 5.34-.625 8.063l-.117 2.298c-.095 1.88-.177 3.76-.258 5.639h-1c-.03-3.083-.047-6.167-.062-9.25l-.026-2.645-.01-2.558-.016-2.349c.114-2.19.508-4.094 1.114-6.198" fill="#e5ddda"/><path d="M239 352h2l1 14h-3zM95 320c2.275 2.167 4.158 4.456 6 7l-2 3-6-5zm67-39c1.845 1.898 3.384 3.89 5 6l-12-4v-2c3.987-1.33 3.987-1.33 7 0m52-186c-2.686 1.79-4.663 2.66-7.687 3.625-1.213.39-1.213.39-2.45.79L202 100v-2h-5c5.394-3.112 10.897-3.122 17-3m47 261 1 5-2 1v-4l-9 1-1-3c3.982-1.054 6.982-.841 11 0m-133-37 2 1-1.437 2.25c-1.342 2.36-2.075 4.116-2.563 6.75l3 1-3 2c-2-2-2-2-2.375-4.812.453-3.851 1.757-5.406 4.375-8.188" fill="#621e16"/><path d="M91 313c2.5 2.313 2.5 2.313 5 5v3c-2 1.688-2 1.688-4 3-1-1-1-1-1.062-3.375L91 318zm261-44c4.472 1.418 8.711 3.113 13 5l-1 3-12-5zm-218-63c2.12 3.534 2.532 6.944 3 11l-2-1-2 3c-2.29-4.94-2.29-4.94-1.465-7.957.75-1.714 1.602-3.383 2.465-5.043m21-24h1l1 13h-2l-2 3q.212-3.438.438-6.875c.08-1.276.162-2.552.246-3.867C154 184 154 184 155 182m213-31c2.595 3.893 4.243 7.138 3.625 11.875L371 165l-5-1 3-1-.5-2.062c-.57-3.354-.567-6.542-.5-9.938m-35-51 3 1v2h2c5 5.476 5 5.476 5 8-4.093-1.574-7.36-4.541-10-8zM135 82h2c1.727 2.117 1.727 2.117 3.625 4.875l1.914 2.742C144 92 144 92 144 94c-4.412-1.47-6.851-5.046-9-9zm139-12 1 3-2 3c-7.625-.875-7.625-.875-11-2v-2l10 1zM157 337h2c-1.566 4.308-3.683 8.062-6 12h-2l-1-4h3l.875-2.312C155 340 155 340 157 337m-47-112h2l2 9-3 2c-1-1-1-1-1.098-3.285l.035-2.778.028-2.785zm204-56 4 4 1.75 1.563C321 176 321 176 321 179h-2l-1 2-4-6h2z" fill="#621e16"/><path d="M85 153c-.458 3.47-.891 6.674-2 10l-3-1c.313-3.375.313-3.375 1-7 3-2 3-2 4-2" fill="#eef1f0"/><path d="m178 351 12 4v2q-2.407-.466-4.812-.937l-2.708-.528C180 355 180 355 177 354zm196-183-1 3c-2.723.95-2.723.95-6.062 1.688l-3.348.761L361 174v-3q2.686-.754 5.375-1.5l3.023-.844C372 168 372 168 374 168m-16-38c-1 3-1 3-2.777 4.063l-2.16.937c-3.27 1.424-3.98 1.874-6.063 5v-5a805 805 0 0 1 4.375-2.5l2.46-1.406C356 130 356 130 358 130M147 331c1.94 2.91 2.968 5.409 4.125 8.688l1.07 3.011L153 345c-1.922-.336-1.922-.336-4-1-2.072-4.351-2.19-8.236-2-13m1-78 2 1c.625 3.063.625 3.063 1 6l1-2 2 1v4h-3v5h-1zm181-59c-.75 7.625-.75 7.625-3 11-1.522-3.043-1.239-5.654-1-9 3-2 3-2 4-2m-66 154h2a895 895 0 0 1 1.5 4.813l.844 2.707C268 358 268 358 268 361h-2a479 479 0 0 1-1.5-4.25l-.844-2.39C263 352 263 352 263 348m24-85 4 1-6 7-1-2-3 1 1-3h3z" fill="#621e16"/><path d="m169 254 3 2-10 2-1-2c1.838-3.675 4.599-3.17 8-2" fill="#e9e3e1"/><path d="M350 94c2.886.398 3.822.79 5.75 3.063L357 99l-3 1-2 2c-1.257-2.906-2-4.796-2-8m-31 222c3.957 1.674 6.845 4.131 10 7v2c-3.288-.579-4.937-1.548-7.25-3.937l-1.578-1.59C319 318 319 318 319 316" fill="#621e16"/><path d="M174 311h8l1 2c2.126.467 2.126.467 4.563.625l2.503.227L192 314v1c-6.802.376-11.757-.225-18-3z" fill="#ded4d1"/><path d="M152 232h2c1.607 3.215 1.057 6.436 1 10l-2 1c-1.283-3.85-1.066-6.947-1-11" fill="#f3efee"/><path d="m145 124 3 1h-2v2c-1.46 1.402-1.46 1.402-3.375 2.938-2.464 1.982-3.83 3.369-5.625 6.062h-2c1.477-3.452 3.438-5.65 6.125-8.25l2.195-2.14zm47 177-1 3 2 2-6 2 1-4-4-1c5.75-2 5.75-2 8-2m-32-39 1.313 1.438c1.71 1.799 1.71 1.799 4.687 2.562l-2 4-6-5 2-1zm-19-5c1.963 3.505 2.959 7.134 4 11a707 707 0 0 1-3.437-2.875l-1.934-1.617C138 262 138 262 137 260l4 1zM245 40h7l1 3c-2.788 1.033-3.868 1.045-6.75.063L244 42zm96 291c0 3 0 3-1.39 4.79l-1.86 1.835-1.828 1.852c-2.016 1.597-3.41 2.112-5.922 2.523 3.187-4.334 6.864-7.619 11-11m-177-38h8v2c-3.135 1.858-5.375 2.201-9 2zm11-8c2.4 2.88 4.473 5.564 6 9l-2 1-6-8h2z" fill="#621e16"/><path d="M172 278c2.762 2.762 2.579 5.207 3 9l-3-1c-1.187-3.062-1.187-3.062-2-6h2zM81 149h3a260 260 0 0 1-1.312 4.438l-.739 2.496L81 158l-3 1zm10-18c2.625.375 2.625.375 5 1v3l-4-1-4 5c.75-5.75.75-5.75 3-8" fill="#621e16"/><path d="M211 94h8l1 2-12 3v-2l3-2z" fill="#c9bbb6"/><path d="M130 319c4.824.268 6.866 2.507 10 6-4.75-.75-4.75-.75-7-3a89 89 0 0 0-4-2zm-23-66c1.563 1.25 1.563 1.25 3 3-.312 2.188-.312 2.188-1 4l-4-1c.875-4.875.875-4.875 2-6" fill="#621e16"/><path d="M130 162c1.55 4.652 1.825 9.938 0 14.5l-1 1.5h-1q.212-3.157.438-6.312c.08-1.172.162-2.344.246-3.551C129 165 129 165 130 162" fill="#c6b3ae"/><path d="M258 134c2.813-.187 2.813-.187 6 0l3 3-10 1z" fill="#eae5e3"/><path d="m294 126 1 2a101 101 0 0 1-6 3l-2-1 1-2-2-1c5.75-2.125 5.75-2.125 8-1" fill="#e3dad8"/><path d="M115 105h5v3c-2 1.688-2 1.688-4 3-1-1-1-1-1.062-3.562z" fill="#e8e3dc"/><path d="m306 327 1.688 2.25c2.242 2.667 4.533 4.666 7.312 6.75l-5 1c-4-5.5-4-5.5-4-10M94 277l2 3 1.688 2.438C99 285 99 285 98.688 287.313L98 289c-3.19-4.186-4.504-6.706-4-12m275-19h2q-.427 2.159-.875 4.313l-.492 2.425C369 267 369 267 367 270c-.178-4.548.002-7.88 2-12m-260-44c1.563 1.125 1.563 1.125 3 3-.312 3.188-.312 3.188-1 6-1.5-1.187-1.5-1.187-3-3-.25-2.625-.25-2.625 0-5zm-31-55h2l1 3h3l1 3-7-1c-.562-1.937-.562-1.937-1-4zm270-22c2.523 3.124 4.273 6.38 6 10l-3 1c-2.153-3.858-3.393-6.551-3-11m-64-69c4.056.468 7.466.88 11 3v2c-4.128-.607-7.332-2.038-11-4zM104 295c2.335 2.257 4.187 4.28 6 7-.375 2.188-.375 2.188-1 4v-3l-3-1c-2-3-2-3-2-7m172-2h7v2h-2l-1 2-5-1zm-2-12h4c-.812 2.938-.812 2.938-2 6l-3 1zm50-37 2 1-2 2.313c-2.299 2.53-2.299 2.53-2 5.687h-2v-2l-3-1zM156 76c1.5 1.188 1.5 1.188 3 3 .188 2.688.188 2.688 0 5l-5 2v-2l2-1zm134 262h2l4 8-3 1c-2.294-3.44-3-4.723-3-9m-74-31 2 1-7 7-3-1zm-65-9 6 2-4 3-4-2z" fill="#621e16"/><path d="m286 258 3 1c-.6 3.356-1.846 5.378-4 8l-2-1z" fill="#ddd2d0"/><path d="M281 231c1.065 3.196 1.194 3.97 0 7-2.062 2.25-2.062 2.25-4 4 0-3.196.547-4.417 2-7.187l1.125-2.168z" fill="#621e16"/><path d="M137 189h1v6h-3c-2.17 1.44-2.17 1.44-4 3 1.527-3.436 3.55-6.155 6-9" fill="#e5dedc"/><path d="M152 178c1.784 3.062 2.229 5.22 2.125 8.75l-.055 2.422L154 191c-1.562-1.437-1.562-1.437-3-4 .032-3.054.467-5.997 1-9" fill="#e6dfdd"/><path d="m188 109 3 1-6 6-3-1z" fill="#f5f2f2"/><path d="M171 373c2.063.438 2.063.438 4 1v3h-6c1-3 1-3 2-4m155-29 2 1-9 8-2-2zm-35-74c1.563 1.688 1.563 1.688 3 4-.312 2.75-.312 2.75-1 5l-1-2-3 1zm19-32h1v8l-2 1-1-7h2zm11-8 2 1-2 7h-2c-.125-2.875-.125-2.875 0-6zm1-33 3 2c.188 2.625.188 2.625 0 5h-3l-1 3zm-193-55 1 4c-1.215 1.922-1.215 1.922-2.937 3.75l-1.715 1.86L124 153l-1-2zm199-31c4.8 3.446 4.8 3.446 5.813 6.25L334 119c-3.161-1.37-3.993-1.99-6-5zm-69 247h1v5l-7 1 2-3h4zm21-3v2c-2.572 1.62-3.677 2.044-6.75 1.625L271 358c2.682-2.682 5.266-3 9-3m-36-2 2 3c3.066.733 3.066.733 6 1l-1 2c-2 .043-4 .04-6 0-1-1-1-1-1.062-3.562zm-129-46v2l-2 1 1 2-6 2c3.138-7 3.138-7 7-7m-19-33 2 1-1.937.75c-2.25 1.066-2.25 1.066-2.813 3.375L93 281v-2h-3v-2a101 101 0 0 1 6-3" fill="#621e16"/><path d="m335 244 3 1v6h-3c-.934-3.01-1.044-3.867 0-7" fill="#e7dfdd"/><path d="M378 189c.813 1.688.813 1.688 1 4-2.437 2.75-2.437 2.75-5 5 .53-3.821 1.497-6.062 4-9" fill="#621e16"/><path d="M318 165h1l1 12-4-5 2-1z" fill="#dfd5d2"/><path d="m108 122-1 2c-3.437.75-3.437.75-7 1l-2-2q1.935-.543 3.875-1.062l2.18-.598C106 121 106 121 108 122m53-48h2c1.257 2.906 2 4.796 2 8l-3-1z" fill="#621e16"/><path d="M186 63c3.875 1.75 3.875 1.75 5 4l-6 1z" fill="#ecf3f8"/><path d="M103 290h2l-1 8c-1.562-1.25-1.562-1.25-3-3 .251-2.137.46-3.46 2-5m-40-22 4 1-1 4h-4z" fill="#621e16"/><path d="M293 261c1 3 1 3 .063 5.188L292 268l-1-2-4 2z" fill="#e7dfdd"/><path d="M174 245a91 91 0 0 1 4 4v2l-5 1v-3h2zm-53-46 3 1 1 5h-3c-1-1-1-1-1.062-3.562zM259 64h1v7l3 1-4 1c-.845-3.378-1.108-5.675 0-9m-88-1h3l1 9c-1.991-2.986-2.941-5.597-4-9m63 1h2l-1 4-11-1v-1c.957-.09.957-.09 1.934-.184l2.504-.254c.823-.08 1.647-.162 2.496-.246 2.053-.105 2.053-.105 3.066-1.316m6-9h3c2.188 3 2.188 3 4 6-3.243-.56-4.93-1.413-7-4zm26 239v2l4 1h-10c1.393-2.786 2.989-3 6-3m-175-9c2.9 2.395 3.502 4.312 4 8h-2c-1.765-3.088-2-4.233-2-8m196-5 1 4-4 3-2-1zM87 268h2v6l-5 1v-2l4-1zm-2-8c2.9 2.395 3.502 4.312 4 8l-3-1z" fill="#621e16"/><path d="M155 240c2 3 2 3 1.625 5.188L156 247h-2c-.625-1.812-.625-1.812-1-4z" fill="#eae3e1"/><path d="M131 221v6l-3 1v-6c2-1 2-1 3-1m161-38c2 2 2 2 2.125 5.125L294 191l-3 1zM175 68c1.945 2.918 2.453 4.625 3 8l-4-1zm48-12h12l1 3-13-2z" fill="#621e16"/></svg>